<svg width="82" height="81" viewBox="0 0 82 81" fill="none" xmlns="http://www.w3.org/2000/svg">
  <g clip-path="url(#clip0_262_16306)">
    <rect width="82" height="80" rx="20" transform="matrix(1 0 0 -1 0 80.8999)" fill="#12132C" fill-opacity="0.5" />
    <g filter="url(#filter0_f_262_16306)">
      <ellipse cx="40" cy="40.3999" rx="78" ry="38.5" fill="#46FFF1" fill-opacity="0.5" />
    </g>
    <path d="M38.432 32.0153C38.2492 32.0914 38.0833 32.203 37.9439 32.3436C37.8033 32.483 37.6917 32.6489 37.6155 32.8317C37.5394 33.0145 37.5002 33.2106 37.5002 33.4086C37.5002 33.6066 37.5394 33.8027 37.6155 33.9855C37.6917 34.1683 37.8033 34.3342 37.9439 34.4736L44.3939 40.9086L37.9439 47.3436C37.8033 47.483 37.6917 47.6489 37.6155 47.8317C37.5394 48.0145 37.5002 48.2106 37.5002 48.4086C37.5002 48.6066 37.5394 48.8027 37.6155 48.9855C37.6917 49.1683 37.8033 49.3342 37.9439 49.4736C38.0833 49.6142 38.2492 49.7258 38.432 49.8019C38.6148 49.8781 38.8109 49.9173 39.0089 49.9173C39.2069 49.9173 39.403 49.8781 39.5857 49.8019C39.7685 49.7258 39.9344 49.6142 40.0739 49.4736L47.5739 41.9736C47.7145 41.8342 47.8261 41.6683 47.9022 41.4855C47.9784 41.3027 48.0176 41.1066 48.0176 40.9086C48.0176 40.7106 47.9784 40.5145 47.9022 40.3317C47.8261 40.1489 47.7145 39.983 47.5739 39.8436L40.0739 32.3436C39.9344 32.203 39.7685 32.0914 39.5857 32.0153C39.403 31.9391 39.2069 31.8999 39.0089 31.8999C38.8109 31.8999 38.6148 31.9391 38.432 32.0153Z" fill="white" />
  </g>
  <defs>
    <filter id="filter0_f_262_16306" x="-232" y="-192.1" width="544" height="465" filterUnits="userSpaceOnUse" color-interpolation-filters="sRGB">
      <feFlood flood-opacity="0" result="BackgroundImageFix" />
      <feBlend mode="normal" in="SourceGraphic" in2="BackgroundImageFix" result="shape" />
      <feGaussianBlur stdDeviation="97" result="effect1_foregroundBlur_262_16306" />
    </filter>
    <clipPath id="clip0_262_16306">
      <rect width="82" height="80" rx="20" transform="matrix(1 0 0 -1 0 80.8999)" fill="white" />
    </clipPath>
  </defs>
</svg>