<svg width="12" height="19" viewBox="0 0 12 19" fill="currentColor" xmlns="http://www.w3.org/2000/svg">
  <path d="M1.43202 1.01526C1.24923 1.09142 1.08332 1.20301 0.94388 1.3436C0.803288 1.48304 0.691696 1.64895 0.615543 1.83173C0.539391 2.01452 0.500183 2.21058 0.500183 2.4086C0.500183 2.60662 0.539391 2.80268 0.615543 2.98547C0.691696 3.16825 0.803288 3.33416 0.94388 3.4736L7.39388 9.9086L0.94388 16.3436C0.803288 16.483 0.691696 16.6489 0.615543 16.8317C0.539391 17.0145 0.500183 17.2106 0.500183 17.4086C0.500183 17.6066 0.539391 17.8027 0.615543 17.9855C0.691696 18.1683 0.803288 18.3342 0.94388 18.4736C1.08332 18.6142 1.24923 18.7258 1.43202 18.8019C1.6148 18.8781 1.81086 18.9173 2.00888 18.9173C2.2069 18.9173 2.40296 18.8781 2.58575 18.8019C2.76853 18.7258 2.93444 18.6142 3.07388 18.4736L10.5739 10.9736C10.7145 10.8342 10.8261 10.6683 10.9022 10.4855C10.9784 10.3027 11.0176 10.1066 11.0176 9.9086C11.0176 9.71058 10.9784 9.51452 10.9022 9.33173C10.8261 9.14895 10.7145 8.98304 10.5739 8.8436L3.07388 1.3436C2.93444 1.20301 2.76853 1.09142 2.58575 1.01526C2.40296 0.93911 2.2069 0.899902 2.00888 0.899902C1.81086 0.899902 1.6148 0.93911 1.43202 1.01526Z" fill="currentColor" />
</svg>