<svg width="40" height="41" viewBox="0 0 40 41" fill="none" xmlns="http://www.w3.org/2000/svg">
<g clip-path="url(#clip0_383_23575)">
<path fill-rule="evenodd" clip-rule="evenodd" d="M41.8573 -2.97485H-3.07129V41.9537H41.8573V-2.97485ZM23.3974 2.22908C26.906 2.9262 30.1291 4.64807 32.6591 7.17694C34.3396 8.85717 35.6727 10.852 36.5822 13.0475C37.4917 15.2429 37.9598 17.5961 37.9598 19.9725C37.9598 22.3489 37.4917 24.702 36.5822 26.8975C35.6727 29.093 34.3396 31.0878 32.6591 32.768C30.9739 34.4428 28.9829 35.7784 26.7941 36.7023C24.5983 37.6053 22.2469 38.0694 19.8726 38.0684C15.0749 38.066 10.4745 36.1584 7.08281 32.765C3.69114 29.3716 1.78586 24.7702 1.78586 19.9725C1.78519 16.3953 2.84528 12.8983 4.83206 9.92356C6.81885 6.94886 9.64311 4.63011 12.9477 3.2605C16.2523 1.8909 19.8888 1.53196 23.3974 2.22908ZM21.6941 36.1559C25.362 35.7414 28.7795 34.0905 31.3841 31.4748C32.893 29.9596 34.0931 28.1657 34.9177 26.1927C36.2122 23.0439 36.4849 19.5679 35.697 16.2558C34.9091 12.9437 33.1006 9.96281 30.5269 7.7342C27.9531 5.50559 24.7443 4.1419 21.3535 3.83575C17.9628 3.5296 14.5615 4.29646 11.6302 6.02802C8.69892 7.75958 6.3857 10.3683 5.01731 13.4857C3.64893 16.6032 3.29453 20.0717 4.00418 23.4015C4.71383 26.7312 6.45167 29.7539 8.97222 32.0425C11.4928 34.3311 14.6686 35.77 18.0512 36.1559V24.2073H14.6451C14.1621 24.2073 13.6988 24.0154 13.3572 23.6738C13.0156 23.3322 12.8237 22.8689 12.8237 22.3859C12.8237 21.9028 13.0156 21.4395 13.3572 21.0979C13.6988 20.7563 14.1621 20.5644 14.6451 20.5644H18.0512V14.663C18.0512 13.4553 18.531 12.2971 19.3849 11.4432C20.2389 10.5892 21.3971 10.1094 22.6048 10.1094H25.7012C26.1843 10.1094 26.6476 10.3013 26.9892 10.6429C27.3307 10.9845 27.5226 11.4478 27.5226 11.9309C27.5226 12.4139 27.3307 12.8772 26.9892 13.2188C26.6476 13.5604 26.1843 13.7523 25.7012 13.7523H23.5155C23.0324 13.7523 22.5691 13.9442 22.2276 14.2858C21.886 14.6274 21.6941 15.0907 21.6941 15.5737V20.5644H25.1184C25.6014 20.5644 26.0647 20.7563 26.4063 21.0979C26.7479 21.4395 26.9398 21.9028 26.9398 22.3859C26.9398 22.8689 26.7479 23.3322 26.4063 23.6738C26.0647 24.0154 25.6014 24.2073 25.1184 24.2073H21.6941V36.1559Z" fill="currentColor"/>
</g>
<defs>
<clipPath id="clip0_383_23575">
<rect x="3" y="3.09668" width="34" height="34" rx="17" fill="currentColor"/>
</clipPath>
</defs>
</svg>
