<svg width="197" height="41" viewBox="0 0 197 41" fill="none" xmlns="http://www.w3.org/2000/svg">
<path d="M20.9209 25.4204C19.7274 25.4204 18.5828 24.9463 17.7389 24.1024C16.895 23.2585 16.4209 22.1139 16.4209 20.9204C16.4209 19.7269 16.895 18.5823 17.7389 17.7384C18.5828 16.8945 19.7274 16.4204 20.9209 16.4204C22.1144 16.4204 23.259 16.8945 24.1029 17.7384C24.9468 18.5823 25.4209 19.7269 25.4209 20.9204C25.4209 22.1139 24.9468 23.2585 24.1029 24.1024C23.259 24.9463 22.1144 25.4204 20.9209 25.4204Z" fill="white"/>
<path fill-rule="evenodd" clip-rule="evenodd" d="M20.9712 40.9204C9.92518 40.9204 0.971191 31.9664 0.971191 20.9204C0.971191 9.87443 9.92518 0.920433 20.9712 0.920433C32.0172 0.920433 40.9712 9.87443 40.9712 20.9204C40.973 24.3252 40.1049 27.674 38.4493 30.6492C36.7937 33.6243 34.4055 36.1272 31.5112 37.9204H41.4712V40.9204H20.9712ZM22.9712 7.92043C22.9712 7.39003 22.7605 6.88129 22.3854 6.50622C22.0103 6.13114 21.5016 5.92043 20.9712 5.92043C20.4408 5.92043 19.9321 6.13114 19.557 6.50622C19.1819 6.88129 18.9712 7.39003 18.9712 7.92043C18.9712 8.45083 19.1819 8.95953 19.557 9.33463C19.9321 9.70973 20.4408 9.92043 20.9712 9.92043C21.5016 9.92043 22.0103 9.70973 22.3854 9.33463C22.7605 8.95953 22.9712 8.45083 22.9712 7.92043ZM9.97118 20.9204C9.97118 21.4508 9.76048 21.9595 9.38538 22.3346C9.01028 22.7097 8.50158 22.9204 7.97118 22.9204C7.44075 22.9204 6.93205 22.7097 6.55697 22.3346C6.1819 21.9595 5.97119 21.4508 5.97119 20.9204C5.97119 20.39 6.1819 19.8813 6.55697 19.5062C6.93205 19.1311 7.44075 18.9204 7.97118 18.9204C8.50158 18.9204 9.01028 19.1311 9.38538 19.5062C9.76048 19.8813 9.97118 20.39 9.97118 20.9204ZM35.9712 20.9204C35.9712 21.4508 35.7605 21.9595 35.3854 22.3346C35.0103 22.7097 34.5016 22.9204 33.9712 22.9204C33.4408 22.9204 32.9321 22.7097 32.557 22.3346C32.1819 21.9595 31.9712 21.4508 31.9712 20.9204C31.9712 20.39 32.1819 19.8813 32.557 19.5062C32.9321 19.1311 33.4408 18.9204 33.9712 18.9204C34.5016 18.9204 35.0103 19.1311 35.3854 19.5062C35.7605 19.8813 35.9712 20.39 35.9712 20.9204ZM20.9712 31.9204C21.5016 31.9204 22.0103 32.1311 22.3854 32.5062C22.7605 32.8813 22.9712 33.39 22.9712 33.9204C22.9712 34.4508 22.7605 34.9595 22.3854 35.3346C22.0103 35.7097 21.5016 35.9204 20.9712 35.9204C20.4408 35.9204 19.9321 35.7097 19.557 35.3346C19.1819 34.9595 18.9712 34.4508 18.9712 33.9204C18.9712 33.39 19.1819 32.8813 19.557 32.5062C19.9321 32.1311 20.4408 31.9204 20.9712 31.9204ZM13.4712 20.9204C13.4712 22.9095 14.2614 24.8172 15.6679 26.2237C17.0744 27.6302 18.9821 28.4204 20.9712 28.4204C22.9603 28.4204 24.868 27.6302 26.2745 26.2237C27.681 24.8172 28.4712 22.9095 28.4712 20.9204C28.4712 18.9313 27.681 17.0236 26.2745 15.6171C24.868 14.2106 22.9603 13.4204 20.9712 13.4204C18.9821 13.4204 17.0744 14.2106 15.6679 15.6171C14.2614 17.0236 13.4712 18.9313 13.4712 20.9204Z" fill="white"/>
<path d="M52.755 13.3363V21.2083H55.731C57.0963 21.2083 58.131 20.8563 58.835 20.1523C59.539 19.427 59.891 18.467 59.891 17.2723C59.891 14.6483 58.451 13.3363 55.571 13.3363H52.755ZM60.659 32.1523L55.603 23.9603H52.755V32.1523H49.459V10.5843H55.475C57.9497 10.5843 59.859 11.1923 61.203 12.4083C62.547 13.603 63.219 15.235 63.219 17.3043C63.1977 18.819 62.8137 20.1096 62.067 21.1763C61.3203 22.2216 60.2857 22.979 58.963 23.4483L64.595 32.1523H60.659Z" fill="white"/>
<path d="M77.5986 22.8723V22.2963C77.5559 21.0803 77.2253 20.1203 76.6066 19.4163C75.9879 18.691 75.1026 18.3283 73.9506 18.3283C72.8839 18.3283 71.9666 18.723 71.1986 19.5123C70.4306 20.2803 69.9506 21.4003 69.7586 22.8723H77.5986ZM79.6146 28.4723V31.2883C78.4199 31.971 76.8413 32.3123 74.8786 32.3123C72.3613 32.3123 70.3559 31.555 68.8626 30.0403C67.3693 28.5256 66.6226 26.5416 66.6226 24.0883C66.6226 21.4856 67.3053 19.4483 68.6706 17.9763C70.0359 16.483 71.7746 15.7363 73.8866 15.7363C75.9559 15.7363 77.5986 16.387 78.8146 17.6883C80.0306 18.9683 80.6386 20.8243 80.6386 23.2563C80.6386 23.9176 80.5746 24.611 80.4466 25.3363H69.7906C70.0039 26.7443 70.6013 27.8216 71.5826 28.5683C72.5639 29.315 73.8013 29.6883 75.2946 29.6883C77.0226 29.6883 78.4626 29.283 79.6146 28.4723Z" fill="white"/>
<path d="M94.4111 22.8723V22.2963C94.3684 21.0803 94.0378 20.1203 93.4191 19.4163C92.8004 18.691 91.9151 18.3283 90.7631 18.3283C89.6964 18.3283 88.7791 18.723 88.0111 19.5123C87.2431 20.2803 86.7631 21.4003 86.5711 22.8723H94.4111ZM96.4271 28.4723V31.2883C95.2324 31.971 93.6538 32.3123 91.6911 32.3123C89.1738 32.3123 87.1684 31.555 85.6751 30.0403C84.1818 28.5256 83.4351 26.5416 83.4351 24.0883C83.4351 21.4856 84.1178 19.4483 85.4831 17.9763C86.8484 16.483 88.5871 15.7363 90.6991 15.7363C92.7684 15.7363 94.4111 16.387 95.6271 17.6883C96.8431 18.9683 97.4511 20.8243 97.4511 23.2563C97.4511 23.9176 97.3871 24.611 97.2591 25.3363H86.6031C86.8164 26.7443 87.4138 27.8216 88.3951 28.5683C89.3764 29.315 90.6138 29.6883 92.1071 29.6883C93.8351 29.6883 95.2751 29.283 96.4271 28.4723Z" fill="white"/>
<path d="M101.271 32.1523V9.52833H104.439V32.1523H101.271Z" fill="white"/>
<path d="M112.411 13.3363V21.2083H115.387C116.753 21.2083 117.787 20.8563 118.491 20.1523C119.195 19.427 119.547 18.467 119.547 17.2723C119.547 14.6483 118.107 13.3363 115.227 13.3363H112.411ZM120.315 32.1523L115.259 23.9603H112.411V32.1523H109.115V10.5843H115.131C117.606 10.5843 119.515 11.1923 120.859 12.4083C122.203 13.603 122.875 15.235 122.875 17.3043C122.854 18.819 122.47 20.1096 121.723 21.1763C120.977 22.2216 119.942 22.979 118.619 23.4483L124.251 32.1523H120.315Z" fill="white"/>
<path d="M137.255 22.8723V22.2963C137.212 21.0803 136.881 20.1203 136.263 19.4163C135.644 18.691 134.759 18.3283 133.607 18.3283C132.54 18.3283 131.623 18.723 130.855 19.5123C130.087 20.2803 129.607 21.4003 129.415 22.8723H137.255ZM139.271 28.4723V31.2883C138.076 31.971 136.497 32.3123 134.535 32.3123C132.017 32.3123 130.012 31.555 128.519 30.0403C127.025 28.5256 126.279 26.5416 126.279 24.0883C126.279 21.4856 126.961 19.4483 128.327 17.9763C129.692 16.483 131.431 15.7363 133.543 15.7363C135.612 15.7363 137.255 16.387 138.471 17.6883C139.687 18.9683 140.295 20.8243 140.295 23.2563C140.295 23.9176 140.231 24.611 140.103 25.3363H129.447C129.66 26.7443 130.257 27.8216 131.239 28.5683C132.22 29.315 133.457 29.6883 134.951 29.6883C136.679 29.6883 138.119 29.283 139.271 28.4723Z" fill="white"/>
<path d="M148.147 32.1523L142.387 15.9283H145.683L147.891 22.7763C148.403 24.355 148.83 25.7203 149.171 26.8723C149.534 28.0243 149.758 28.7816 149.843 29.1443L149.971 29.6883C150.163 28.643 150.867 26.339 152.083 22.7763L154.355 15.9283H157.619L151.731 32.1523H148.147Z" fill="white"/>
<path d="M170.505 22.8723V22.2963C170.462 21.0803 170.131 20.1203 169.513 19.4163C168.894 18.691 168.009 18.3283 166.857 18.3283C165.79 18.3283 164.873 18.723 164.105 19.5123C163.337 20.2803 162.857 21.4003 162.665 22.8723H170.505ZM172.521 28.4723V31.2883C171.326 31.971 169.747 32.3123 167.785 32.3123C165.267 32.3123 163.262 31.555 161.769 30.0403C160.275 28.5256 159.529 26.5416 159.529 24.0883C159.529 21.4856 160.211 19.4483 161.577 17.9763C162.942 16.483 164.681 15.7363 166.793 15.7363C168.862 15.7363 170.505 16.387 171.721 17.6883C172.937 18.9683 173.545 20.8243 173.545 23.2563C173.545 23.9176 173.481 24.611 173.353 25.3363H162.697C162.91 26.7443 163.507 27.8216 164.489 28.5683C165.47 29.315 166.707 29.6883 168.201 29.6883C169.929 29.6883 171.369 29.283 172.521 28.4723Z" fill="white"/>
<path d="M185.781 24.9203H183.349C182.155 24.9203 181.248 25.155 180.629 25.6243C180.032 26.0936 179.733 26.691 179.733 27.4163C179.733 28.163 179.968 28.7496 180.437 29.1763C180.907 29.603 181.589 29.8163 182.485 29.8163C183.509 29.8163 184.309 29.539 184.885 28.9843C185.483 28.4083 185.781 27.6616 185.781 26.7443V24.9203ZM177.621 19.8003V16.7603C178.88 16.035 180.544 15.6723 182.613 15.6723C186.859 15.6723 188.981 17.731 188.981 21.8483V32.1523H185.877V30.2323C185.045 31.5976 183.584 32.2803 181.493 32.2803C179.957 32.2803 178.72 31.843 177.781 30.9683C176.864 30.0723 176.405 28.9416 176.405 27.5763C176.405 26.019 176.992 24.8136 178.165 23.9603C179.339 23.0856 180.981 22.6483 183.093 22.6483H185.781V21.7203C185.781 20.611 185.515 19.779 184.981 19.2243C184.448 18.6483 183.563 18.3603 182.325 18.3603C180.597 18.3603 179.029 18.8403 177.621 19.8003Z" fill="white"/>
<path d="M193.334 32.1523V9.52833H196.502V32.1523H193.334Z" fill="white"/>
</svg>
