<svg width="40" height="41" viewBox="0 0 40 41" fill="currentColor" xmlns="http://www.w3.org/2000/svg">
<path fill-rule="evenodd" clip-rule="evenodd" d="M5 18.43C5 12.145 5 9.00168 6.95333 7.05001C8.905 5.09668 12.0483 5.09668 18.3333 5.09668H21.6667C27.9517 5.09668 31.095 5.09668 33.0467 7.05001C35 9.00168 35 12.145 35 18.43V21.7633C35 28.0483 35 31.1917 33.0467 33.1433C31.095 35.0967 27.9517 35.0967 21.6667 35.0967H18.3333C12.0483 35.0967 8.905 35.0967 6.95333 33.1433C5 31.1917 5 28.0483 5 21.7633V18.43ZM30 12.5967C30 13.2597 29.7366 13.8956 29.2678 14.3644C28.7989 14.8333 28.163 15.0967 27.5 15.0967C26.837 15.0967 26.2011 14.8333 25.7322 14.3644C25.2634 13.8956 25 13.2597 25 12.5967C25 11.9336 25.2634 11.2978 25.7322 10.8289C26.2011 10.3601 26.837 10.0967 27.5 10.0967C28.163 10.0967 28.7989 10.3601 29.2678 10.8289C29.7366 11.2978 30 11.9336 30 12.5967ZM23.3333 21.7633C23.3333 22.6474 22.9821 23.4952 22.357 24.1204C21.7319 24.7455 20.8841 25.0967 20 25.0967C19.1159 25.0967 18.2681 24.7455 17.643 24.1204C17.0179 23.4952 16.6667 22.6474 16.6667 21.7633C16.6667 20.8793 17.0179 20.0314 17.643 19.4063C18.2681 18.7812 19.1159 18.43 20 18.43C20.8841 18.43 21.7319 18.7812 22.357 19.4063C22.9821 20.0314 23.3333 20.8793 23.3333 21.7633ZM26.6667 21.7633C26.6667 23.5315 25.9643 25.2271 24.714 26.4774C23.4638 27.7276 21.7681 28.43 20 28.43C18.2319 28.43 16.5362 27.7276 15.286 26.4774C14.0357 25.2271 13.3333 23.5315 13.3333 21.7633C13.3333 19.9952 14.0357 18.2995 15.286 17.0493C16.5362 15.7991 18.2319 15.0967 20 15.0967C21.7681 15.0967 23.4638 15.7991 24.714 17.0493C25.9643 18.2995 26.6667 19.9952 26.6667 21.7633Z" fill="currentColor"/>
</svg>
