<svg width="204" height="48" viewBox="0 0 204 48" fill="none" xmlns="http://www.w3.org/2000/svg">
<path d="M24 28.5C22.8065 28.5 21.6619 28.0259 20.818 27.182C19.9741 26.3381 19.5 25.1935 19.5 24C19.5 22.8065 19.9741 21.6619 20.818 20.818C21.6619 19.9741 22.8065 19.5 24 19.5C25.1935 19.5 26.3381 19.9741 27.182 20.818C28.0259 21.6619 28.5 22.8065 28.5 24C28.5 25.1935 28.0259 26.3381 27.182 27.182C26.3381 28.0259 25.1935 28.5 24 28.5Z" fill="white"/>
<path fill-rule="evenodd" clip-rule="evenodd" d="M23.5117 44C12.4657 44 3.51173 35.046 3.51173 24C3.51173 12.954 12.4657 4 23.5117 4C34.5577 4 43.5117 12.954 43.5117 24C43.5135 27.4048 42.6454 30.7536 40.9899 33.7288C39.3343 36.7039 36.946 39.2068 34.0517 41H44.0117V41.7164V42.4549V43.1492V44H23.5117ZM25.5117 11C25.5117 10.4696 25.301 9.96086 24.9259 9.58579C24.5509 9.21071 24.0422 9 23.5117 9C22.9813 9 22.4726 9.21071 22.0975 9.58579C21.7224 9.96086 21.5117 10.4696 21.5117 11C21.5117 11.5304 21.7224 12.0391 22.0975 12.4142C22.4726 12.7893 22.9813 13 23.5117 13C24.0422 13 24.5509 12.7893 24.9259 12.4142C25.301 12.0391 25.5117 11.5304 25.5117 11ZM12.5117 24C12.5117 24.5304 12.301 25.0391 11.9259 25.4142C11.5509 25.7893 11.0422 26 10.5117 26C9.9813 26 9.47259 25.7893 9.09752 25.4142C8.72245 25.0391 8.51173 24.5304 8.51173 24C8.51173 23.4696 8.72245 22.9609 9.09752 22.5858C9.47259 22.2107 9.9813 22 10.5117 22C11.0422 22 11.5509 22.2107 11.9259 22.5858C12.301 22.9609 12.5117 23.4696 12.5117 24ZM38.5117 24C38.5117 24.5304 38.301 25.0391 37.9259 25.4142C37.5509 25.7893 37.0422 26 36.5117 26C35.9813 26 35.4726 25.7893 35.0975 25.4142C34.7224 25.0391 34.5117 24.5304 34.5117 24C34.5117 23.4696 34.7224 22.9609 35.0975 22.5858C35.4726 22.2107 35.9813 22 36.5117 22C37.0422 22 37.5509 22.2107 37.9259 22.5858C38.301 22.9609 38.5117 23.4696 38.5117 24ZM23.5117 35C24.0422 35 24.5509 35.2107 24.9259 35.5858C25.301 35.9609 25.5117 36.4696 25.5117 37C25.5117 37.5304 25.301 38.0391 24.9259 38.4142C24.5509 38.7893 24.0422 39 23.5117 39C22.9813 39 22.4726 38.7893 22.0975 38.4142C21.7224 38.0391 21.5117 37.5304 21.5117 37C21.5117 36.4696 21.7224 35.9609 22.0975 35.5858C22.4726 35.2107 22.9813 35 23.5117 35ZM16.0117 24C16.0117 25.9891 16.8019 27.8968 18.2084 29.3033C19.615 30.7098 21.5226 31.5 23.5117 31.5C25.5009 31.5 27.4085 30.7098 28.815 29.3033C30.2216 27.8968 31.0117 25.9891 31.0117 24C31.0117 22.0109 30.2216 20.1032 28.815 18.6967C27.4085 17.2902 25.5009 16.5 23.5117 16.5C21.5226 16.5 19.615 17.2902 18.2084 18.6967C16.8019 20.1032 16.0117 22.0109 16.0117 24Z" fill="none"/>
<path d="M57.632 16.184V24.056H60.608C61.9733 24.056 63.008 23.704 63.712 23C64.416 22.2747 64.768 21.3147 64.768 20.12C64.768 17.496 63.328 16.184 60.448 16.184H57.632ZM65.536 35L60.48 26.808H57.632V35H54.336V13.432H60.352C62.8267 13.432 64.736 14.04 66.08 15.256C67.424 16.4507 68.096 18.0827 68.096 20.152C68.0747 21.6667 67.6907 22.9573 66.944 24.024C66.1973 25.0693 65.1627 25.8267 63.84 26.296L69.472 35H65.536ZM82.4755 25.72V25.144C82.4328 23.928 82.1022 22.968 81.4835 22.264C80.8648 21.5387 79.9795 21.176 78.8275 21.176C77.7608 21.176 76.8435 21.5707 76.0755 22.36C75.3075 23.128 74.8275 24.248 74.6355 25.72H82.4755ZM84.4915 31.32V34.136C83.2968 34.8187 81.7182 35.16 79.7555 35.16C77.2382 35.16 75.2328 34.4027 73.7395 32.888C72.2462 31.3733 71.4995 29.3893 71.4995 26.936C71.4995 24.3333 72.1822 22.296 73.5475 20.824C74.9128 19.3307 76.6515 18.584 78.7635 18.584C80.8328 18.584 82.4755 19.2347 83.6915 20.536C84.9075 21.816 85.5155 23.672 85.5155 26.104C85.5155 26.7653 85.4515 27.4587 85.3235 28.184H74.6675C74.8808 29.592 75.4782 30.6693 76.4595 31.416C77.4408 32.1627 78.6782 32.536 80.1715 32.536C81.8995 32.536 83.3395 32.1307 84.4915 31.32ZM99.288 25.72V25.144C99.2453 23.928 98.9147 22.968 98.296 22.264C97.6773 21.5387 96.792 21.176 95.64 21.176C94.5733 21.176 93.656 21.5707 92.888 22.36C92.12 23.128 91.64 24.248 91.448 25.72H99.288ZM101.304 31.32V34.136C100.109 34.8187 98.5307 35.16 96.568 35.16C94.0507 35.16 92.0453 34.4027 90.552 32.888C89.0587 31.3733 88.312 29.3893 88.312 26.936C88.312 24.3333 88.9947 22.296 90.36 20.824C91.7253 19.3307 93.464 18.584 95.576 18.584C97.6453 18.584 99.288 19.2347 100.504 20.536C101.72 21.816 102.328 23.672 102.328 26.104C102.328 26.7653 102.264 27.4587 102.136 28.184H91.48C91.6933 29.592 92.2907 30.6693 93.272 31.416C94.2533 32.1627 95.4907 32.536 96.984 32.536C98.712 32.536 100.152 32.1307 101.304 31.32ZM106.149 35V12.376H109.317V35H106.149ZM117.288 16.184V24.056H120.264C121.63 24.056 122.664 23.704 123.368 23C124.072 22.2747 124.424 21.3147 124.424 20.12C124.424 17.496 122.984 16.184 120.104 16.184H117.288ZM125.192 35L120.136 26.808H117.288V35H113.992V13.432H120.008C122.483 13.432 124.392 14.04 125.736 15.256C127.08 16.4507 127.752 18.0827 127.752 20.152C127.731 21.6667 127.347 22.9573 126.6 24.024C125.854 25.0693 124.819 25.8267 123.496 26.296L129.128 35H125.192ZM142.132 25.72V25.144C142.089 23.928 141.758 22.968 141.14 22.264C140.521 21.5387 139.636 21.176 138.484 21.176C137.417 21.176 136.5 21.5707 135.732 22.36C134.964 23.128 134.484 24.248 134.292 25.72H142.132ZM144.148 31.32V34.136C142.953 34.8187 141.374 35.16 139.412 35.16C136.894 35.16 134.889 34.4027 133.396 32.888C131.902 31.3733 131.156 29.3893 131.156 26.936C131.156 24.3333 131.838 22.296 133.204 20.824C134.569 19.3307 136.308 18.584 138.42 18.584C140.489 18.584 142.132 19.2347 143.348 20.536C144.564 21.816 145.172 23.672 145.172 26.104C145.172 26.7653 145.108 27.4587 144.98 28.184H134.324C134.537 29.592 135.134 30.6693 136.116 31.416C137.097 32.1627 138.334 32.536 139.828 32.536C141.556 32.536 142.996 32.1307 144.148 31.32ZM153.024 35L147.264 18.776H150.56L152.768 25.624C153.28 27.2027 153.707 28.568 154.048 29.72C154.411 30.872 154.635 31.6293 154.72 31.992L154.848 32.536C155.04 31.4907 155.744 29.1867 156.96 25.624L159.232 18.776H162.496L156.608 35H153.024ZM175.382 25.72V25.144C175.339 23.928 175.008 22.968 174.39 22.264C173.771 21.5387 172.886 21.176 171.734 21.176C170.667 21.176 169.75 21.5707 168.982 22.36C168.214 23.128 167.734 24.248 167.542 25.72H175.382ZM177.398 31.32V34.136C176.203 34.8187 174.624 35.16 172.662 35.16C170.144 35.16 168.139 34.4027 166.646 32.888C165.152 31.3733 164.406 29.3893 164.406 26.936C164.406 24.3333 165.088 22.296 166.454 20.824C167.819 19.3307 169.558 18.584 171.67 18.584C173.739 18.584 175.382 19.2347 176.598 20.536C177.814 21.816 178.422 23.672 178.422 26.104C178.422 26.7653 178.358 27.4587 178.23 28.184H167.574C167.787 29.592 168.384 30.6693 169.366 31.416C170.347 32.1627 171.584 32.536 173.078 32.536C174.806 32.536 176.246 32.1307 177.398 31.32ZM190.658 27.768H188.226C187.032 27.768 186.125 28.0027 185.506 28.472C184.909 28.9413 184.61 29.5387 184.61 30.264C184.61 31.0107 184.845 31.5973 185.314 32.024C185.784 32.4507 186.466 32.664 187.362 32.664C188.386 32.664 189.186 32.3867 189.762 31.832C190.36 31.256 190.658 30.5093 190.658 29.592V27.768ZM182.498 22.648V19.608C183.757 18.8827 185.421 18.52 187.49 18.52C191.736 18.52 193.858 20.5787 193.858 24.696V35H190.754V33.08C189.922 34.4453 188.461 35.128 186.37 35.128C184.834 35.128 183.597 34.6907 182.658 33.816C181.741 32.92 181.282 31.7893 181.282 30.424C181.282 28.8667 181.869 27.6613 183.042 26.808C184.216 25.9333 185.858 25.496 187.97 25.496H190.658V24.568C190.658 23.4587 190.392 22.6267 189.858 22.072C189.325 21.496 188.44 21.208 187.202 21.208C185.474 21.208 183.906 21.688 182.498 22.648ZM198.211 35V12.376H201.379V35H198.211Z" fill="white"/>
</svg>
