<svg width="40" height="41" viewBox="0 0 40 41" fill="currentColor" xmlns="http://www.w3.org/2000/svg">
<path d="M33.3335 6.76343H6.66683C4.8335 6.76343 3.35016 8.26343 3.35016 10.0968L3.3335 30.0968C3.3335 31.9301 4.8335 33.4301 6.66683 33.4301H33.3335C35.1668 33.4301 36.6668 31.9301 36.6668 30.0968V10.0968C36.6668 8.26343 35.1668 6.76343 33.3335 6.76343ZM32.6668 13.8468L20.8835 21.2134C20.3502 21.5468 19.6502 21.5468 19.1168 21.2134L7.3335 13.8468C7.16638 13.7529 7.02003 13.6262 6.90331 13.4742C6.78659 13.3222 6.70193 13.1481 6.65445 12.9624C6.60698 12.7767 6.59767 12.5833 6.62709 12.3939C6.65651 12.2046 6.72406 12.0231 6.82563 11.8606C6.92721 11.6981 7.0607 11.5579 7.21804 11.4484C7.37538 11.339 7.55328 11.2626 7.74099 11.2239C7.9287 11.1852 8.1223 11.185 8.31009 11.2233C8.49787 11.2616 8.67594 11.3376 8.8335 11.4468L20.0002 18.4301L31.1668 11.4468C31.3244 11.3376 31.5025 11.2616 31.6902 11.2233C31.878 11.185 32.0716 11.1852 32.2593 11.2239C32.447 11.2626 32.6249 11.339 32.7823 11.4484C32.9396 11.5579 33.0731 11.6981 33.1747 11.8606C33.2763 12.0231 33.3438 12.2046 33.3732 12.3939C33.4027 12.5833 33.3933 12.7767 33.3459 12.9624C33.2984 13.1481 33.2137 13.3222 33.097 13.4742C32.9803 13.6262 32.834 13.7529 32.6668 13.8468Z" fill="currentColor"/>
</svg>
