<svg width="288" height="275" viewBox="0 0 288 275" fill="none" xmlns="http://www.w3.org/2000/svg">
<path opacity="0.82" d="M0 0.00268555V275H288V0.00268555H0ZM214.783 15.4891C214.783 13.3048 216.441 11.5186 218.462 11.5186H229.423C231.444 11.5186 233.102 13.3022 233.102 15.4891V34.4615C233.102 36.6458 231.444 38.432 229.423 38.432H218.462C216.441 38.432 214.783 36.6484 214.783 34.4615V15.4891ZM281.109 55.427V222.391C281.109 228.467 276.543 233.394 270.912 233.394H17.0903C11.4598 233.394 6.8936 228.467 6.8936 222.391V55.427C6.8936 49.3508 11.4598 44.4244 17.0903 44.4244H270.912C276.543 44.4244 281.109 49.3508 281.109 55.427ZM178.494 11.5186H189.449C191.474 11.5186 193.129 13.3022 193.129 15.4891V34.4615C193.129 36.6458 191.476 38.432 189.449 38.432H178.494C176.47 38.432 174.815 36.6484 174.815 34.4615V15.4891C174.815 13.3022 176.47 11.5186 178.494 11.5186ZM134.844 15.4891C134.844 13.3048 136.502 11.5186 138.524 11.5186H149.479C151.503 11.5186 153.161 13.3022 153.161 15.4891V34.4615C153.161 36.6458 151.503 38.432 149.479 38.432H138.524C136.502 38.432 134.844 36.6484 134.844 34.4615V15.4891ZM109.508 11.5186C111.532 11.5186 113.188 13.3022 113.188 15.4891V34.4615C113.188 36.6458 111.535 38.432 109.508 38.432H98.5533C96.5292 38.432 94.8711 36.6484 94.8711 34.4615V15.4891C94.8711 13.3048 96.5292 11.5186 98.5533 11.5186H109.508ZM54.9058 15.4891C54.9058 13.3048 56.5587 11.5186 58.5854 11.5186H69.5404C71.5646 11.5186 73.2226 13.3022 73.2226 15.4891V34.4615C73.2226 36.6458 71.5646 38.432 69.5404 38.432H58.5854C56.5613 38.432 54.9058 36.6484 54.9058 34.4615V15.4891ZM14.9327 15.4891C14.9327 13.3048 16.5907 11.5186 18.6149 11.5186H29.5699C31.5941 11.5186 33.2495 13.3022 33.2495 15.4891V34.4615C33.2495 36.6458 31.5967 38.432 29.5699 38.432H18.6149C16.5907 38.432 14.9327 36.6484 14.9327 34.4615V15.4891ZM18.6149 266.3C16.5907 266.3 14.9327 264.516 14.9327 262.329V243.357C14.9327 241.172 16.5907 239.386 18.6149 239.386H29.5699C31.5941 239.386 33.2495 241.17 33.2495 243.357V262.329C33.2495 264.513 31.5967 266.3 29.5699 266.3H18.6149ZM73.22 262.329C73.22 264.513 71.5619 266.3 69.5378 266.3H58.5828C56.5586 266.3 54.9032 264.516 54.9032 262.329V243.357C54.9032 241.172 56.556 239.386 58.5828 239.386H69.5378C71.5619 239.386 73.22 241.17 73.22 243.357V262.329ZM113.188 262.329C113.188 264.513 111.535 266.3 109.508 266.3H98.5533C96.5292 266.3 94.8711 264.516 94.8711 262.329V243.357C94.8711 241.172 96.5292 239.386 98.5533 239.386H109.508C111.532 239.386 113.188 241.17 113.188 243.357V262.329ZM153.161 262.329C153.161 264.513 151.503 266.3 149.479 266.3H138.524C136.502 266.3 134.844 264.516 134.844 262.329V243.357C134.844 241.172 136.502 239.386 138.524 239.386H149.479C151.503 239.386 153.161 241.17 153.161 243.357V262.329ZM178.494 266.3C176.47 266.3 174.815 264.516 174.815 262.329V243.357C174.815 241.172 176.468 239.386 178.494 239.386H189.449C191.474 239.386 193.129 241.17 193.129 243.357V262.329C193.129 264.513 191.476 266.3 189.449 266.3H178.494ZM229.42 266.3H218.46C216.438 266.3 214.78 264.516 214.78 262.329V243.357C214.78 241.172 216.438 239.386 218.46 239.386H229.42C231.441 239.386 233.099 241.17 233.099 243.357V262.329C233.099 264.516 231.441 266.3 229.42 266.3ZM273.07 262.329C273.07 264.513 271.412 266.3 269.388 266.3H258.433C256.409 266.3 254.753 264.516 254.753 262.329V243.357C254.753 241.172 256.406 239.386 258.433 239.386H269.388C271.412 239.386 273.07 241.17 273.07 243.357V262.329ZM273.07 34.4615C273.07 36.6458 271.412 38.432 269.388 38.432H258.433C256.409 38.432 254.753 36.6484 254.753 34.4615V15.4891C254.753 13.3048 256.406 11.5186 258.433 11.5186H269.388C271.412 11.5186 273.07 13.3022 273.07 15.4891V34.4615Z" fill="#20E8DA" fill-opacity="0.2"/>
<g opacity="0.82">
<path d="M14.9327 19.0405H0V28.2071H14.9327V19.0405Z" fill="#20E8DA" fill-opacity="0.2"/>
<path d="M54.905 19.0404H33.2486V28.2071H54.905V19.0404Z" fill="#20E8DA" fill-opacity="0.2"/>
<path d="M94.8715 19.0405H73.2204V28.2071H94.8715V19.0405Z" fill="#20E8DA" fill-opacity="0.2"/>
<path d="M134.844 19.0405H113.188V28.2071H134.844V19.0405Z" fill="#20E8DA" fill-opacity="0.2"/>
<path d="M174.817 19.0404H153.161V28.2071H174.817V19.0404Z" fill="#20E8DA" fill-opacity="0.2"/>
<path d="M214.783 19.0405H193.126V28.2071H214.783V19.0405Z" fill="#20E8DA" fill-opacity="0.2"/>
<path d="M254.756 19.0404H233.1V28.2071H254.756V19.0404Z" fill="#20E8DA" fill-opacity="0.2"/>
<path d="M287.997 19.0404H273.069V28.2071H287.997V19.0404Z" fill="#20E8DA" fill-opacity="0.2"/>
<path d="M36.2181 0H28.3229V7.99072H36.2181V0Z" fill="#20E8DA" fill-opacity="0.2"/>
<path d="M14.9327 0H9.58987V7.99072H14.9327V0Z" fill="#20E8DA" fill-opacity="0.2"/>
<path d="M5.3456 0H0.00278732V15.5126H5.3456V0Z" fill="#20E8DA" fill-opacity="0.2"/>
<path d="M43.9503 0H39.0495V7.99072H43.9503V0Z" fill="#20E8DA" fill-opacity="0.2"/>
<path d="M51.6835 0H46.7827V7.99072H51.6835V0Z" fill="#20E8DA" fill-opacity="0.2"/>
<path d="M238.001 0H233.1V7.99072H238.001V0Z" fill="#20E8DA" fill-opacity="0.2"/>
<path d="M252.514 0H240.367V7.99072H252.514V0Z" fill="#20E8DA" fill-opacity="0.2"/>
<path d="M142.297 0H137.397V7.99072H142.297V0Z" fill="#20E8DA" fill-opacity="0.2"/>
<path d="M150.864 0H145.964V7.99072H150.864V0Z" fill="#20E8DA" fill-opacity="0.2"/>
<path d="M283.557 7.52191V0H278.656V7.52191H275.52V0H270.619V7.99333H274.735V15.5126H279.636V7.99333H283.099V15.5126H288V7.52191H283.557Z" fill="#20E8DA" fill-opacity="0.2"/>
<path d="M158.815 15.5126H172.283V7.99333H176.567V0H171.666V7.52191H167.999V0H163.098V7.52191H159.432V0H154.531V7.99333H158.815V15.5126Z" fill="#20E8DA" fill-opacity="0.2"/>
<path d="M185.134 0H180.233V7.99072H185.134V0Z" fill="#20E8DA" fill-opacity="0.2"/>
<path d="M193.702 0H188.801V7.99072H193.702V0Z" fill="#20E8DA" fill-opacity="0.2"/>
<path d="M91.1108 0H86.21V7.99072H91.1108V0Z" fill="#20E8DA" fill-opacity="0.2"/>
<path d="M98.8411 0H93.9402V7.99072H98.8411V0Z" fill="#20E8DA" fill-opacity="0.2"/>
<path d="M106.482 0H101.581V7.99072H106.482V0Z" fill="#20E8DA" fill-opacity="0.2"/>
<path d="M14.9327 246.793H0V255.96H14.9327V246.793Z" fill="#20E8DA" fill-opacity="0.2"/>
<path d="M54.905 246.793H33.2486V255.959H54.905V246.793Z" fill="#20E8DA" fill-opacity="0.2"/>
<path d="M94.8715 246.793H73.2204V255.96H94.8715V246.793Z" fill="#20E8DA" fill-opacity="0.2"/>
<path d="M134.844 246.793H113.188V255.96H134.844V246.793Z" fill="#20E8DA" fill-opacity="0.2"/>
<path d="M174.817 246.793H153.161V255.959H174.817V246.793Z" fill="#20E8DA" fill-opacity="0.2"/>
<path d="M214.783 246.793H193.126V255.96H214.783V246.793Z" fill="#20E8DA" fill-opacity="0.2"/>
<path d="M254.756 246.793H233.1V255.959H254.756V246.793Z" fill="#20E8DA" fill-opacity="0.2"/>
<path d="M287.997 246.793H273.069V255.959H287.997V246.793Z" fill="#20E8DA" fill-opacity="0.2"/>
<path d="M36.2181 267.004H28.3229V274.995H36.2181V267.004Z" fill="#20E8DA" fill-opacity="0.2"/>
<path d="M14.9327 267.004H9.58987V274.995H14.9327V267.004Z" fill="#20E8DA" fill-opacity="0.2"/>
<path d="M0.00295751 274.997H5.34577V259.485H0.00295751V274.997Z" fill="#20E8DA" fill-opacity="0.2"/>
<path d="M43.9503 267.004H39.0495V274.995H43.9503V267.004Z" fill="#20E8DA" fill-opacity="0.2"/>
<path d="M51.6835 267.004H46.7827V274.995H51.6835V267.004Z" fill="#20E8DA" fill-opacity="0.2"/>
<path d="M238.001 267.004H233.1V274.995H238.001V267.004Z" fill="#20E8DA" fill-opacity="0.2"/>
<path d="M252.514 267.004H240.367V274.995H252.514V267.004Z" fill="#20E8DA" fill-opacity="0.2"/>
<path d="M142.297 267.004H137.397V274.995H142.297V267.004Z" fill="#20E8DA" fill-opacity="0.2"/>
<path d="M150.864 267.004H145.964V274.995H150.864V267.004Z" fill="#20E8DA" fill-opacity="0.2"/>
<path d="M283.099 267.004H279.636V259.485H274.735V267.004H270.619V274.997H275.52V267.475H278.656V274.997H283.557V267.475H288V259.485H283.099V267.004Z" fill="#20E8DA" fill-opacity="0.2"/>
<path d="M172.283 259.485H158.815V267.004H154.531V274.997H159.432V267.475H163.098V274.997H167.999V267.475H171.666V274.997H176.567V267.004H172.283V259.485Z" fill="#20E8DA" fill-opacity="0.2"/>
<path d="M185.134 267.004H180.233V274.995H185.134V267.004Z" fill="#20E8DA" fill-opacity="0.2"/>
<path d="M193.702 267.004H188.801V274.995H193.702V267.004Z" fill="#20E8DA" fill-opacity="0.2"/>
<path d="M91.1108 267.004H86.21V274.995H91.1108V267.004Z" fill="#20E8DA" fill-opacity="0.2"/>
<path d="M98.8411 267.004H93.9402V274.995H98.8411V267.004Z" fill="#20E8DA" fill-opacity="0.2"/>
<path d="M106.482 267.004H101.581V274.995H106.482V267.004Z" fill="#20E8DA" fill-opacity="0.2"/>
</g>
</svg>
