<svg  viewBox="0 0 288.75 275" fill="none" opacity="0.82" fill-opacity="0.2" fill="#20E8DA" xmlns="http://www.w3.org/2000/svg">
<path d="M0.667725 0.989746V274.931H287.986V0.989746H0.667725ZM214.942 16.4167C214.942 14.2408 216.596 12.4615 218.613 12.4615H229.547C231.564 12.4615 233.218 14.2382 233.218 16.4167V35.3162C233.218 37.4921 231.564 39.2714 229.547 39.2714H218.613C216.596 39.2714 214.942 37.4947 214.942 35.3162V16.4167ZM281.111 56.2012V222.524C281.111 228.577 276.556 233.485 270.939 233.485H17.7175C12.1003 233.485 7.54503 228.577 7.54503 222.524V56.2012C7.54503 50.1483 12.1003 45.2408 17.7175 45.2408H270.939C276.556 45.2408 281.111 50.1483 281.111 56.2012ZM178.739 12.4615H189.668C191.688 12.4615 193.339 14.2382 193.339 16.4167V35.3162C193.339 37.4921 191.69 39.2714 189.668 39.2714H178.739C176.72 39.2714 175.069 37.4947 175.069 35.3162V16.4167C175.069 14.2382 176.72 12.4615 178.739 12.4615ZM135.193 16.4167C135.193 14.2408 136.847 12.4615 138.864 12.4615H149.793C151.812 12.4615 153.466 14.2382 153.466 16.4167V35.3162C153.466 37.4921 151.812 39.2714 149.793 39.2714H138.864C136.847 39.2714 135.193 37.4947 135.193 35.3162V16.4167ZM109.917 12.4615C111.936 12.4615 113.588 14.2382 113.588 16.4167V35.3162C113.588 37.4921 111.939 39.2714 109.917 39.2714H98.9877C96.9683 39.2714 95.3142 37.4947 95.3142 35.3162V16.4167C95.3142 14.2408 96.9683 12.4615 98.9877 12.4615H109.917ZM55.4436 16.4167C55.4436 14.2408 57.0924 12.4615 59.1144 12.4615H70.0435C72.0628 12.4615 73.7169 14.2382 73.7169 16.4167V35.3162C73.7169 37.4921 72.0628 39.2714 70.0435 39.2714H59.1144C57.095 39.2714 55.4436 37.4947 55.4436 35.3162V16.4167ZM15.5651 16.4167C15.5651 14.2408 17.2192 12.4615 19.2385 12.4615H30.1676C32.187 12.4615 33.8385 14.2382 33.8385 16.4167V35.3162C33.8385 37.4921 32.1896 39.2714 30.1676 39.2714H19.2385C17.2192 39.2714 15.5651 37.4947 15.5651 35.3162V16.4167ZM19.2385 266.264C17.2192 266.264 15.5651 264.487 15.5651 262.309V243.409C15.5651 241.233 17.2192 239.454 19.2385 239.454H30.1676C32.187 239.454 33.8385 241.231 33.8385 243.409V262.309C33.8385 264.485 32.1896 266.264 30.1676 266.264H19.2385ZM73.7143 262.309C73.7143 264.485 72.0602 266.264 70.0409 266.264H59.1118C57.0924 266.264 55.4409 264.487 55.4409 262.309V243.409C55.4409 241.233 57.0898 239.454 59.1118 239.454H70.0409C72.0602 239.454 73.7143 241.231 73.7143 243.409V262.309ZM113.588 262.309C113.588 264.485 111.939 266.264 109.917 266.264H98.9877C96.9683 266.264 95.3142 264.487 95.3142 262.309V243.409C95.3142 241.233 96.9683 239.454 98.9877 239.454H109.917C111.936 239.454 113.588 241.231 113.588 243.409V262.309ZM153.466 262.309C153.466 264.485 151.812 266.264 149.793 266.264H138.864C136.847 266.264 135.193 264.487 135.193 262.309V243.409C135.193 241.233 136.847 239.454 138.864 239.454H149.793C151.812 239.454 153.466 241.231 153.466 243.409V262.309ZM178.739 266.264C176.72 266.264 175.069 264.487 175.069 262.309V243.409C175.069 241.233 176.717 239.454 178.739 239.454H189.668C191.688 239.454 193.339 241.231 193.339 243.409V262.309C193.339 264.485 191.69 266.264 189.668 266.264H178.739ZM229.544 266.264H218.61C216.593 266.264 214.939 264.487 214.939 262.309V243.409C214.939 241.233 216.593 239.454 218.61 239.454H229.544C231.561 239.454 233.215 241.231 233.215 243.409V262.309C233.215 264.487 231.561 266.264 229.544 266.264ZM273.091 262.309C273.091 264.485 271.437 266.264 269.418 266.264H258.489C256.469 266.264 254.818 264.487 254.818 262.309V243.409C254.818 241.233 256.467 239.454 258.489 239.454H269.418C271.437 239.454 273.091 241.231 273.091 243.409V262.309ZM273.091 35.3162C273.091 37.4921 271.437 39.2714 269.418 39.2714H258.489C256.469 39.2714 254.818 37.4947 254.818 35.3162V16.4167C254.818 14.2408 256.467 12.4615 258.489 12.4615H269.418C271.437 12.4615 273.091 14.2382 273.091 16.4167V35.3162Z"/>
<path d="M15.5651 19.9543H0.667725V29.0858H15.5651V19.9543Z"/>
<path d="M55.4435 19.9543H33.8384V29.0858H55.4435V19.9543Z"/>
<path d="M95.3142 19.9543H73.7144V29.0858H95.3142V19.9543Z"/>
<path d="M135.193 19.9543H113.588V29.0858H135.193V19.9543Z"/>
<path d="M175.071 19.9543H153.466V29.0858H175.071V19.9543Z"/>
<path d="M214.942 19.9543H193.337V29.0858H214.942V19.9543Z"/>
<path d="M254.82 19.9543H233.215V29.0858H254.82V19.9543Z"/>
<path d="M287.983 19.9543H273.091V29.0858H287.983V19.9543Z"/>
<path d="M36.7997 0.987061H28.9231V8.94709H36.7997V0.987061Z"/>
<path d="M15.565 0.987061H10.2349V8.94709H15.565V0.987061Z"/>
<path d="M6.00071 8.94969V8.48008V0.987061H0.670532V8.48008V8.94969V16.4401H6.00071V8.94969Z"/>
<path d="M44.5144 0.987061H39.6252V8.94709H44.5144V0.987061Z"/>
<path d="M52.2293 0.987061H47.34V8.94709H52.2293V0.987061Z"/>
<path d="M238.104 0.987061H233.215V8.94709H238.104V0.987061Z"/>
<path d="M252.584 0.987061H240.466V8.94709H252.584V0.987061Z"/>
<path d="M142.628 0.987061H137.739V8.94709H142.628V0.987061Z"/>
<path d="M151.175 0.987061H146.286V8.94709H151.175V0.987061Z"/>
<path d="M283.553 8.48008V0.987061H278.664V8.48008H275.536V0.987061H270.646V8.94969H274.753V16.4401H279.642V8.94969H283.097V16.4401H287.986V8.48008H283.553Z"/>
<path d="M159.107 16.4401H162.691H163.996H172.543V8.94969H176.817V0.987061H171.927V8.48008H168.27V0.987061H163.38V8.48008H162.691H159.722V0.987061H154.833V8.94969H159.107V16.4401Z"/>
<path d="M185.364 0.987061H180.474V8.94709H185.364V0.987061Z"/>
<path d="M193.911 0.987061H189.021V8.94709H193.911V0.987061Z"/>
<path d="M91.5625 0.987061H86.6732V8.94709H91.5625V0.987061Z"/>
<path d="M99.2773 0.987061H94.388V8.94709H99.2773V0.987061Z"/>
<path d="M106.898 0.987061H102.009V8.94709H106.898V0.987061Z"/>
<path d="M15.5651 246.832H0.667725V255.963H15.5651V246.832Z"/>
<path d="M55.4435 246.832H33.8384V255.963H55.4435V246.832Z"/>
<path d="M95.3142 246.832H73.7144V255.963H95.3142V246.832Z"/>
<path d="M135.193 246.832H113.588V255.963H135.193V246.832Z"/>
<path d="M175.071 246.832H153.466V255.963H175.071V246.832Z"/>
<path d="M214.942 246.832H193.337V255.963H214.942V246.832Z"/>
<path d="M254.82 246.832H233.215V255.963H254.82V246.832Z"/>
<path d="M287.983 246.832H273.091V255.963H287.983V246.832Z"/>
<path d="M36.7997 266.966H28.9231V274.926H36.7997V266.966Z"/>
<path d="M15.565 266.966H10.2349V274.926H15.565V266.966Z"/>
<path d="M0.670349 266.965V267.435V274.928H6.00052V267.435V266.965V259.475H0.670349V266.965Z"/>
<path d="M44.5144 266.966H39.6252V274.926H44.5144V266.966Z"/>
<path d="M52.2293 266.966H47.34V274.926H52.2293V266.966Z"/>
<path d="M238.104 266.966H233.215V274.926H238.104V266.966Z"/>
<path d="M252.584 266.966H240.466V274.926H252.584V266.966Z"/>
<path d="M142.628 266.966H137.739V274.926H142.628V266.966Z"/>
<path d="M151.175 266.966H146.286V274.926H151.175V266.966Z"/>
<path d="M283.097 266.965H279.642V259.475H274.753V266.965H270.646V274.928H275.536V267.435H278.664V274.928H283.553V267.435H287.986V259.475H283.097V266.965Z"/>
<path d="M172.543 259.475H163.996H162.691H159.107V266.965H154.833V274.928H159.722V267.435H162.691H163.38V274.928H168.27V267.435H171.927V274.928H176.817V266.965H172.543V259.475Z"/>
<path d="M185.364 266.966H180.474V274.926H185.364V266.966Z"/>
<path d="M193.911 266.966H189.021V274.926H193.911V266.966Z"/>
<path d="M91.5625 266.966H86.6732V274.926H91.5625V266.966Z"/>
<path d="M99.2773 266.966H94.388V274.926H99.2773V266.966Z"/>
<path d="M106.898 266.966H102.009V274.926H106.898V266.966Z"/>
</svg>
