<svg width="24" height="24" viewBox="0 0 24 24" fill="none" xmlns="http://www.w3.org/2000/svg">
<path fill-rule="evenodd" clip-rule="evenodd" d="M15.2676 3.57467C14.3213 2.87629 13.1761 2.49964 12 2.5C10.8239 2.49964 9.67866 2.87629 8.73236 3.57467C7.78607 4.27305 7.08856 5.25638 6.74221 6.38032C6.39586 7.50427 6.41892 8.70964 6.808 9.81952C7.19708 10.9294 7.93169 11.8853 8.904 12.547C7.2165 13.1659 5.75283 14.2757 4.70136 15.7335C3.64989 17.1913 3.05875 18.9304 3.004 20.727C3.00262 20.773 3.00548 20.8187 3.01238 20.8636C3.00425 20.9078 3 20.9534 3 21C3 21.4142 3.33579 21.75 3.75 21.75H20.25C20.6642 21.75 21 21.4142 21 21C21 20.9568 20.9963 20.9144 20.9893 20.8732C20.9962 20.8252 20.9985 20.7766 20.996 20.728C20.9414 18.9312 20.3504 17.1919 19.2989 15.7339C18.2474 14.2759 16.7837 13.166 15.096 12.547C16.0683 11.8853 16.8029 10.9294 17.192 9.81952C17.5811 8.70964 17.6041 7.50427 17.2578 6.38032C16.9114 5.25638 16.2139 4.27305 15.2676 3.57467ZM19.4628 20.25C19.2863 18.4955 18.4959 16.8528 17.2222 15.6174C15.8228 14.2602 13.95 13.5011 12.0005 13.5011C10.051 13.5011 8.17819 14.2602 6.77883 15.6174C5.50507 16.8528 4.71472 18.4955 4.53819 20.25H19.4628ZM9.17157 10.8284C8.42143 10.0783 8 9.06087 8 8C8 6.93914 8.42143 5.92172 9.17157 5.17157C9.92172 4.42143 10.9391 4 12 4C13.0609 4 14.0783 4.42143 14.8284 5.17157C15.5786 5.92172 16 6.93914 16 8C16 9.06087 15.5786 10.0783 14.8284 10.8284C14.0783 11.5786 13.0609 12 12 12C10.9391 12 9.92172 11.5786 9.17157 10.8284Z" fill="currentColor"/>
</svg>
