<svg xmlns="http://www.w3.org/2000/svg" width="40" height="41" fill="none"><g clip-path="url(#a)"><path fill="currentColor" fill-rule="evenodd" d="M41.857-2.975H-3.07v44.929h44.928zM23.397 2.23a18.087 18.087 0 0 1 13.185 24.669 18.1 18.1 0 0 1-3.923 5.87 18.6 18.6 0 0 1-5.865 3.934 18.2 18.2 0 0 1-6.921 1.366 18.096 18.096 0 0 1-6.925-34.807 18.1 18.1 0 0 1 10.45-1.032m-1.703 33.927a16.25 16.25 0 0 0 9.69-4.681 16.5 16.5 0 0 0 3.534-5.282 16.246 16.246 0 1 0-16.867 9.963V24.207h-3.406a1.821 1.821 0 0 1 0-3.643h3.406v-5.901a4.554 4.554 0 0 1 4.554-4.554H25.7a1.821 1.821 0 1 1 0 3.643h-2.186a1.82 1.82 0 0 0-1.82 1.822v4.99h3.423a1.821 1.821 0 0 1 0 3.643h-3.424z" clip-rule="evenodd"/></g><defs><clipPath id="a"><rect width="34" height="34" x="3" y="3.097" fill="currentColor" rx="17"/></clipPath></defs></svg>