<svg width="200" height="48" viewBox="0 0 200 48" fill="none" xmlns="http://www.w3.org/2000/svg">
<path d="M23.4619 28.5C22.2684 28.5 21.1238 28.0259 20.2799 27.182C19.436 26.3381 18.9619 25.1935 18.9619 24C18.9619 22.8065 19.436 21.6619 20.2799 20.818C21.1238 19.9741 22.2684 19.5 23.4619 19.5C24.6554 19.5 25.8 19.9741 26.6439 20.818C27.4878 21.6619 27.9619 22.8065 27.9619 24C27.9619 25.1935 27.4878 26.3381 26.6439 27.182C25.8 28.0259 24.6554 28.5 23.4619 28.5Z" fill="white"/>
<path fill-rule="evenodd" clip-rule="evenodd" d="M23.5122 44C12.4662 44 3.51221 35.046 3.51221 24C3.51221 12.954 12.4662 4 23.5122 4C34.5582 4 43.5122 12.954 43.5122 24C43.514 27.4048 42.6459 30.7536 40.9903 33.7288C39.3347 36.7039 36.9465 39.2068 34.0522 41H44.0122V44H23.5122ZM25.5122 11C25.5122 10.4696 25.3015 9.96086 24.9264 9.58579C24.5513 9.21071 24.0426 9 23.5122 9C22.9818 9 22.4731 9.21071 22.098 9.58579C21.7229 9.96086 21.5122 10.4696 21.5122 11C21.5122 11.5304 21.7229 12.0391 22.098 12.4142C22.4731 12.7893 22.9818 13 23.5122 13C24.0426 13 24.5513 12.7893 24.9264 12.4142C25.3015 12.0391 25.5122 11.5304 25.5122 11ZM12.5122 24C12.5122 24.5304 12.3015 25.0391 11.9264 25.4142C11.5513 25.7893 11.0426 26 10.5122 26C9.98177 26 9.47307 25.7893 9.09799 25.4142C8.72292 25.0391 8.51221 24.5304 8.51221 24C8.51221 23.4696 8.72292 22.9609 9.09799 22.5858C9.47307 22.2107 9.98177 22 10.5122 22C11.0426 22 11.5513 22.2107 11.9264 22.5858C12.3015 22.9609 12.5122 23.4696 12.5122 24ZM38.5122 24C38.5122 24.5304 38.3015 25.0391 37.9264 25.4142C37.5513 25.7893 37.0426 26 36.5122 26C35.9818 26 35.4731 25.7893 35.098 25.4142C34.7229 25.0391 34.5122 24.5304 34.5122 24C34.5122 23.4696 34.7229 22.9609 35.098 22.5858C35.4731 22.2107 35.9818 22 36.5122 22C37.0426 22 37.5513 22.2107 37.9264 22.5858C38.3015 22.9609 38.5122 23.4696 38.5122 24ZM23.5122 35C24.0426 35 24.5513 35.2107 24.9264 35.5858C25.3015 35.9609 25.5122 36.4696 25.5122 37C25.5122 37.5304 25.3015 38.0391 24.9264 38.4142C24.5513 38.7893 24.0426 39 23.5122 39C22.9818 39 22.4731 38.7893 22.098 38.4142C21.7229 38.0391 21.5122 37.5304 21.5122 37C21.5122 36.4696 21.7229 35.9609 22.098 35.5858C22.4731 35.2107 22.9818 35 23.5122 35ZM16.0122 24C16.0122 25.9891 16.8024 27.8968 18.2089 29.3033C19.6154 30.7098 21.5231 31.5 23.5122 31.5C25.5013 31.5 27.409 30.7098 28.8155 29.3033C30.222 27.8968 31.0122 25.9891 31.0122 24C31.0122 22.0109 30.222 20.1032 28.8155 18.6967C27.409 17.2902 25.5013 16.5 23.5122 16.5C21.5231 16.5 19.6154 17.2902 18.2089 18.6967C16.8024 20.1032 16.0122 22.0109 16.0122 24Z" fill="white"/>
<path d="M55.296 16.4159V24.2879H58.272C59.6373 24.2879 60.672 23.9359 61.376 23.2319C62.08 22.5066 62.432 21.5466 62.432 20.3519C62.432 17.7279 60.992 16.4159 58.112 16.4159H55.296ZM63.2 35.2319L58.144 27.0399H55.296V35.2319H52V13.6639H58.016C60.4907 13.6639 62.4 14.2719 63.744 15.4879C65.088 16.6826 65.76 18.3146 65.76 20.3839C65.7387 21.8986 65.3547 23.1892 64.608 24.2559C63.8613 25.3012 62.8267 26.0586 61.504 26.5279L67.136 35.2319H63.2Z" fill="white"/>
<path d="M80.1395 25.9519V25.3759C80.0968 24.1599 79.7662 23.1999 79.1475 22.4959C78.5288 21.7706 77.6435 21.4079 76.4915 21.4079C75.4248 21.4079 74.5075 21.8026 73.7395 22.5919C72.9715 23.3599 72.4915 24.4799 72.2995 25.9519H80.1395ZM82.1555 31.5519V34.3679C80.9608 35.0506 79.3822 35.3919 77.4195 35.3919C74.9022 35.3919 72.8968 34.6346 71.4035 33.1199C69.9102 31.6052 69.1635 29.6212 69.1635 27.1679C69.1635 24.5652 69.8462 22.5279 71.2115 21.0559C72.5768 19.5626 74.3155 18.8159 76.4275 18.8159C78.4968 18.8159 80.1395 19.4666 81.3555 20.7679C82.5715 22.0479 83.1795 23.9039 83.1795 26.3359C83.1795 26.9972 83.1155 27.6906 82.9875 28.4159H72.3315C72.5448 29.8239 73.1422 30.9012 74.1235 31.6479C75.1048 32.3946 76.3422 32.7679 77.8355 32.7679C79.5635 32.7679 81.0035 32.3626 82.1555 31.5519Z" fill="white"/>
<path d="M96.952 25.9519V25.3759C96.9093 24.1599 96.5787 23.1999 95.96 22.4959C95.3413 21.7706 94.456 21.4079 93.304 21.4079C92.2373 21.4079 91.32 21.8026 90.552 22.5919C89.784 23.3599 89.304 24.4799 89.112 25.9519H96.952ZM98.968 31.5519V34.3679C97.7733 35.0506 96.1947 35.3919 94.232 35.3919C91.7147 35.3919 89.7093 34.6346 88.216 33.1199C86.7227 31.6052 85.976 29.6212 85.976 27.1679C85.976 24.5652 86.6587 22.5279 88.024 21.0559C89.3893 19.5626 91.128 18.8159 93.24 18.8159C95.3093 18.8159 96.952 19.4666 98.168 20.7679C99.384 22.0479 99.992 23.9039 99.992 26.3359C99.992 26.9972 99.928 27.6906 99.8 28.4159H89.144C89.3573 29.8239 89.9547 30.9012 90.936 31.6479C91.9173 32.3946 93.1547 32.7679 94.648 32.7679C96.376 32.7679 97.816 32.3626 98.968 31.5519Z" fill="white"/>
<path d="M103.812 35.2319V12.6079H106.98V35.2319H103.812Z" fill="white"/>
<path d="M114.952 16.4159V24.2879H117.928C119.294 24.2879 120.328 23.9359 121.032 23.2319C121.736 22.5066 122.088 21.5466 122.088 20.3519C122.088 17.7279 120.648 16.4159 117.768 16.4159H114.952ZM122.856 35.2319L117.8 27.0399H114.952V35.2319H111.656V13.6639H117.672C120.147 13.6639 122.056 14.2719 123.4 15.4879C124.744 16.6826 125.416 18.3146 125.416 20.3839C125.395 21.8986 125.011 23.1892 124.264 24.2559C123.518 25.3012 122.483 26.0586 121.16 26.5279L126.792 35.2319H122.856Z" fill="white"/>
<path d="M139.796 25.9519V25.3759C139.753 24.1599 139.422 23.1999 138.804 22.4959C138.185 21.7706 137.3 21.4079 136.148 21.4079C135.081 21.4079 134.164 21.8026 133.396 22.5919C132.628 23.3599 132.148 24.4799 131.956 25.9519H139.796ZM141.812 31.5519V34.3679C140.617 35.0506 139.038 35.3919 137.076 35.3919C134.558 35.3919 132.553 34.6346 131.06 33.1199C129.566 31.6052 128.82 29.6212 128.82 27.1679C128.82 24.5652 129.502 22.5279 130.868 21.0559C132.233 19.5626 133.972 18.8159 136.084 18.8159C138.153 18.8159 139.796 19.4666 141.012 20.7679C142.228 22.0479 142.836 23.9039 142.836 26.3359C142.836 26.9972 142.772 27.6906 142.644 28.4159H131.988C132.201 29.8239 132.798 30.9012 133.78 31.6479C134.761 32.3946 135.998 32.7679 137.492 32.7679C139.22 32.7679 140.66 32.3626 141.812 31.5519Z" fill="white"/>
<path d="M150.688 35.2319L144.928 19.0079H148.224L150.432 25.8559C150.944 27.4346 151.371 28.7999 151.712 29.9519C152.075 31.1039 152.299 31.8612 152.384 32.2239L152.512 32.7679C152.704 31.7226 153.408 29.4186 154.624 25.8559L156.896 19.0079H160.16L154.272 35.2319H150.688Z" fill="white"/>
<path d="M173.046 25.9519V25.3759C173.003 24.1599 172.672 23.1999 172.054 22.4959C171.435 21.7706 170.55 21.4079 169.398 21.4079C168.331 21.4079 167.414 21.8026 166.646 22.5919C165.878 23.3599 165.398 24.4799 165.206 25.9519H173.046ZM175.062 31.5519V34.3679C173.867 35.0506 172.288 35.3919 170.326 35.3919C167.808 35.3919 165.803 34.6346 164.31 33.1199C162.816 31.6052 162.07 29.6212 162.07 27.1679C162.07 24.5652 162.752 22.5279 164.118 21.0559C165.483 19.5626 167.222 18.8159 169.334 18.8159C171.403 18.8159 173.046 19.4666 174.262 20.7679C175.478 22.0479 176.086 23.9039 176.086 26.3359C176.086 26.9972 176.022 27.6906 175.894 28.4159H165.238C165.451 29.8239 166.048 30.9012 167.03 31.6479C168.011 32.3946 169.248 32.7679 170.742 32.7679C172.47 32.7679 173.91 32.3626 175.062 31.5519Z" fill="white"/>
<path d="M188.322 27.9999H185.89C184.696 27.9999 183.789 28.2346 183.17 28.7039C182.573 29.1732 182.274 29.7706 182.274 30.4959C182.274 31.2426 182.509 31.8292 182.978 32.2559C183.448 32.6826 184.13 32.8959 185.026 32.8959C186.05 32.8959 186.85 32.6186 187.426 32.0639C188.024 31.4879 188.322 30.7412 188.322 29.8239V27.9999ZM180.162 22.8799V19.8399C181.421 19.1146 183.085 18.7519 185.154 18.7519C189.4 18.7519 191.522 20.8106 191.522 24.9279V35.2319H188.418V33.3119C187.586 34.6772 186.125 35.3599 184.034 35.3599C182.498 35.3599 181.261 34.9226 180.322 34.0479C179.405 33.1519 178.946 32.0212 178.946 30.6559C178.946 29.0986 179.533 27.8932 180.706 27.0399C181.88 26.1652 183.522 25.7279 185.634 25.7279H188.322V24.7999C188.322 23.6906 188.056 22.8586 187.522 22.3039C186.989 21.7279 186.104 21.4399 184.866 21.4399C183.138 21.4399 181.57 21.9199 180.162 22.8799Z" fill="white"/>
<path d="M195.875 35.2319V12.6079H199.043V35.2319H195.875Z" fill="white"/>
</svg>
