<svg width="0" height="0" class="hidden">
  <symbol fill="none" xmlns="http://www.w3.org/2000/svg" viewBox="0 0 60 60" id="getFilmPicksSvg">
    <path d="M15.5 27L17.5257 32.4743L23 34.5L17.5257 36.5257L15.5 42L13.4743 36.5257L8 34.5L13.4743 32.4743L15.5 27Z" fill="white"></path>
    <path d="M31.5 25L32.9855 29.0145L37 30.5L32.9855 31.9855L31.5 36L30.0145 31.9855L26 30.5L30.0145 29.0145L31.5 25Z" fill="white"></path>
    <path fill-rule="evenodd" clip-rule="evenodd" d="M0 16.5C0 16.2349 0.0257958 15.9758 0.0750145 15.725C0.435893 13.8868 2.056 12.5 4 12.5H41C42.944 12.5 44.5641 13.8868 44.925 15.725C44.9742 15.9758 45 16.2349 45 16.5V43.5C45 45.7091 43.2091 47.5 41 47.5H4C1.79086 47.5 0 45.7091 0 43.5V16.5ZM2 21.5H43V43.5C43 44.6046 42.1046 45.5 41 45.5H4C2.89543 45.5 2 44.6046 2 43.5V21.5ZM17.4561 14.2697L20.1514 19.6603H27.5437L24.6944 14.2697H17.4561ZM33.1943 19.6603L30.499 14.2697H37.7373L40.5866 19.6603H33.1943ZM4.41309 14.2697L7.1084 19.6603H14.5007L11.6514 14.2697H4.41309Z" fill="white"></path>
  </symbol>
  <symbol fill="none" xmlns="http://www.w3.org/2000/svg" viewBox="0 0 61 61" id="takeQuizSvg">
    <g clip-path="url(#clip0_215_131)">
      <path d="M25.5 36.7449C26.0167 36.7449 26.4708 36.5491 26.8625 36.1574C27.2558 35.7641 27.4525 35.3099 27.4525 34.7949C27.4525 34.2782 27.2558 33.8241 26.8625 33.4324C26.4692 33.0407 26.015 32.8441 25.5 32.8424C24.9833 32.8424 24.5292 33.0391 24.1375 33.4324C23.7458 33.8257 23.5492 34.2799 23.5475 34.7949C23.5475 35.3116 23.7442 35.7657 24.1375 36.1574C24.5292 36.5491 24.9833 36.7449 25.5 36.7449ZM24.395 29.7074H26.605C26.67 28.6591 26.835 27.8699 27.1 27.3399C27.3667 26.8099 28.0067 26.0699 29.02 25.1199C30.0767 24.1599 30.8133 23.3016 31.23 22.5449C31.6467 21.7916 31.855 20.9257 31.855 19.9474C31.855 18.2641 31.255 16.8616 30.055 15.7399C28.855 14.6166 27.3367 14.0549 25.5 14.0549C24.1117 14.0549 22.8783 14.4299 21.8 15.1799C20.7217 15.9299 19.9008 16.9516 19.3375 18.2449L21.365 19.1399C21.8367 18.1632 22.4117 17.4299 23.09 16.9399C23.7667 16.4516 24.57 16.2074 25.5 16.2074C26.6917 16.2074 27.6808 16.5607 28.4675 17.2674C29.2508 17.9741 29.6425 18.8866 29.6425 20.0049C29.6425 20.6849 29.4525 21.3174 29.0725 21.9024C28.6908 22.4857 28.035 23.1899 27.105 24.0149C26.0517 24.9349 25.3367 25.7791 24.96 26.5474C24.5833 27.3141 24.395 28.3674 24.395 29.7074ZM12.0375 42.8999C10.8875 42.8999 9.9275 42.5149 9.1575 41.7449C8.38583 40.9732 8 40.0124 8 38.8624V11.9374C8 10.7874 8.38583 9.8274 9.1575 9.0574C9.9275 8.28574 10.8875 7.8999 12.0375 7.8999H38.9625C40.1125 7.8999 41.0725 8.28574 41.8425 9.0574C42.6142 9.8274 43 10.7874 43 11.9374V38.8624C43 40.0124 42.615 40.9732 41.845 41.7449C41.0733 42.5149 40.1125 42.8999 38.9625 42.8999H12.0375ZM12.0375 40.3999H38.9625C39.3458 40.3999 39.6983 40.2399 40.02 39.9199C40.34 39.5982 40.5 39.2457 40.5 38.8624V11.9374C40.5 11.5541 40.34 11.2016 40.02 10.8799C39.6983 10.5599 39.3458 10.3999 38.9625 10.3999H12.0375C11.6542 10.3999 11.3017 10.5599 10.98 10.8799C10.66 11.2016 10.5 11.5541 10.5 11.9374V38.8624C10.5 39.2457 10.66 39.5982 10.98 39.9199C11.3017 40.2399 11.6542 40.3999 12.0375 40.3999ZM4.5375 50.3999C3.3875 50.3999 2.4275 50.0149 1.6575 49.2449C0.885833 48.4732 0.5 47.5124 0.5 46.3624V16.9374H3V46.3624C3 46.7457 3.16 47.0982 3.48 47.4199C3.80167 47.7399 4.15417 47.8999 4.5375 47.8999H33.9625V50.3999H4.5375Z" fill="white"></path>
    </g>
    <defs>
      <clipPath id="clip0_215_131">
        <rect width="60" height="60" fill="white" transform="translate(0.5 0.399902)"></rect>
      </clipPath>
    </defs>
  </symbol>
  <symbol  fill="none" xmlns="http://www.w3.org/2000/svg" viewBox="0 0 61 61" id="exploreAndEnjoySvg">
    <path d="M39.4045 17.9313C40.5124 17.9313 41.5749 17.4912 42.3582 16.7079C43.1416 15.9245 43.5817 14.862 43.5817 13.7542C43.5817 12.6463 43.1416 11.5839 42.3582 10.8005C41.5749 10.0171 40.5124 9.57704 39.4045 9.57704C39.4045 8.46919 38.9645 7.40672 38.1811 6.62336C37.3977 5.83999 36.3353 5.3999 35.2274 5.3999C34.1196 5.3999 33.0571 5.83999 32.2737 6.62336C31.4904 7.40672 31.0503 8.46919 31.0503 9.57704C31.0503 8.46919 30.6102 7.40672 29.8268 6.62336C29.0435 5.83999 27.981 5.3999 26.8731 5.3999C25.7653 5.3999 24.7028 5.83999 23.9195 6.62336C23.1361 7.40672 22.696 8.46919 22.696 9.57704C22.696 8.46919 22.2559 7.40672 21.4725 6.62336C20.6892 5.83999 19.6267 5.3999 18.5189 5.3999C17.411 5.3999 16.3485 5.83999 15.5652 6.62336C14.7818 7.40672 14.3417 8.46919 14.3417 9.57704C13.2339 9.57704 12.1714 10.0171 11.388 10.8005C10.6047 11.5839 10.1646 12.6463 10.1646 13.7542C10.1646 14.862 10.6047 15.9245 11.388 16.7079C12.1714 17.4912 13.2339 17.9313 14.3417 17.9313M22.696 47.1713L20.6074 17.9313M31.0503 47.1713L33.1388 17.9313M43.5821 17.9313C44.6264 17.9313 45.4618 18.7667 45.2529 20.0199L39.8227 45.0827C39.6138 46.127 38.3607 47.1713 37.3164 47.1713H16.4307C15.1776 47.1713 14.1333 46.3358 13.9244 45.0827L8.49413 20.0199C8.28528 18.7667 9.1207 17.9313 10.165 17.9313H43.5821Z" stroke="white" stroke-width="2.33" stroke-linecap="round" stroke-linejoin="round"></path>
  </symbol>
</svg>