<svg xmlns="http://www.w3.org/2000/svg" width="200" height="48" fill="none"><path fill="#fff" d="M23.462 28.5a4.5 4.5 0 1 1 0-9 4.5 4.5 0 0 1 0 9"/><path fill="#fff" fill-rule="evenodd" d="M23.512 44c-11.046 0-20-8.954-20-20s8.954-20 20-20 20 8.954 20 20a19.99 19.99 0 0 1-9.46 17h9.96v3zm2-33a2 2 0 1 0-4 0 2 2 0 0 0 4 0m-13 13a2 2 0 1 1-4 0 2 2 0 0 1 4 0m26 0a2 2 0 1 1-4 0 2 2 0 0 1 4 0m-15 11a2 2 0 1 1 0 4 2 2 0 0 1 0-4m-7.5-11a7.5 7.5 0 1 0 15 0 7.5 7.5 0 0 0-15 0" clip-rule="evenodd"/><path fill="#fff" d="M55.296 16.416v7.872h2.976q2.048 0 3.104-1.056 1.056-1.087 1.056-2.88 0-3.936-4.32-3.936zM63.2 35.232l-5.056-8.192h-2.848v8.192H52V13.664h6.016q3.712 0 5.728 1.824 2.016 1.793 2.016 4.896-.032 2.272-1.152 3.872-1.12 1.568-3.104 2.272l5.632 8.704zM80.14 25.952v-.576q-.065-1.824-.993-2.88-.927-1.088-2.656-1.088-1.6 0-2.751 1.184-1.152 1.152-1.44 3.36zm2.016 5.6v2.816q-1.793 1.024-4.737 1.024-3.775 0-6.016-2.272-2.24-2.273-2.24-5.952 0-3.904 2.049-6.112 2.047-2.24 5.215-2.24 3.104 0 4.929 1.952 1.824 1.92 1.824 5.568 0 .992-.193 2.08H72.333q.32 2.112 1.792 3.232 1.47 1.12 3.712 1.12 2.592 0 4.32-1.216M96.952 25.952v-.576q-.064-1.824-.992-2.88-.928-1.088-2.656-1.088-1.6 0-2.752 1.184-1.152 1.152-1.44 3.36zm2.016 5.6v2.816q-1.792 1.024-4.736 1.024-3.776 0-6.016-2.272-2.24-2.273-2.24-5.952 0-3.904 2.048-6.112 2.048-2.24 5.216-2.24 3.104 0 4.928 1.952 1.824 1.92 1.824 5.568 0 .992-.192 2.08H89.144q.32 2.112 1.792 3.232t3.712 1.12q2.592 0 4.32-1.216M103.812 35.232V12.608h3.168v22.624zM114.952 16.416v7.872h2.976q2.049 0 3.104-1.056 1.056-1.087 1.056-2.88 0-3.936-4.32-3.936zm7.904 18.816L117.8 27.04h-2.848v8.192h-3.296V13.664h6.016q3.712 0 5.728 1.824 2.016 1.793 2.016 4.896-.031 2.272-1.152 3.872-1.12 1.568-3.104 2.272l5.632 8.704zM139.796 25.952v-.576q-.065-1.824-.992-2.88-.928-1.088-2.656-1.088-1.6 0-2.752 1.184-1.152 1.152-1.44 3.36zm2.016 5.6v2.816q-1.793 1.024-4.736 1.024-3.777 0-6.016-2.272-2.24-2.273-2.24-5.952 0-3.904 2.048-6.112 2.048-2.24 5.216-2.24 3.104 0 4.928 1.952 1.824 1.92 1.824 5.568 0 .992-.192 2.08h-10.656q.32 2.112 1.792 3.232t3.712 1.12q2.592 0 4.32-1.216M150.688 35.232l-5.76-16.224h3.296l2.208 6.848a170 170 0 0 1 1.28 4.096q.544 1.729.672 2.272l.128.544q.288-1.568 2.112-6.912l2.272-6.848h3.264l-5.888 16.224zM173.046 25.952v-.576q-.065-1.824-.992-2.88-.928-1.088-2.656-1.088-1.6 0-2.752 1.184-1.152 1.152-1.44 3.36zm2.016 5.6v2.816q-1.793 1.024-4.736 1.024-3.777 0-6.016-2.272-2.24-2.273-2.24-5.952 0-3.904 2.048-6.112 2.048-2.24 5.216-2.24 3.104 0 4.928 1.952 1.824 1.92 1.824 5.568 0 .992-.192 2.08h-10.656q.32 2.112 1.792 3.232t3.712 1.12q2.592 0 4.32-1.216M188.322 28h-2.432q-1.791 0-2.72.704-.896.705-.896 1.792 0 1.12.704 1.76t2.048.64q1.536 0 2.4-.832.897-.864.896-2.24zm-8.16-5.12v-3.04q1.888-1.088 4.992-1.088 6.369 0 6.368 6.176v10.304h-3.104v-1.92q-1.248 2.048-4.384 2.048-2.304 0-3.712-1.312-1.376-1.344-1.376-3.392 0-2.336 1.76-3.616 1.76-1.312 4.928-1.312h2.688V24.8q0-1.664-.8-2.496-.8-.864-2.656-.864-2.592 0-4.704 1.44M195.875 35.232V12.608h3.168v22.624z"/></svg>